<?xml version="1.0" encoding="utf-8"?>
<!-- Generator: Adobe Illustrator 18.1.1, SVG Export Plug-In . SVG Version: 6.00 Build 0)  -->
<svg version="1.1" id="Layer_1" xmlns="http://www.w3.org/2000/svg" xmlns:xlink="http://www.w3.org/1999/xlink" x="0px" y="0px"
	 viewBox="0 0 380 75" enable-background="new 0 0 380 75" xml:space="preserve">
<g>
	<polygon fill="#FFFFFF" points="88.1,58.9 92.6,58.9 92.6,32.8 88.1,36 	"/>
	<path fill="#FFFFFF" d="M106.1,39c-2.9,0-6.2,0.6-8.9,1.7V59h4.3V43.5c1.1-0.4,2.7-0.6,4.2-0.6c2.4,0,4.2,1,4.2,3.8v12.2h4.3V46.4
		C114.3,40.9,111.1,39,106.1,39"/>
	<path fill="#FFFFFF" d="M127.5,39c-2.9,0-6.2,0.6-8.9,1.7V59h4.4V43.5c1.1-0.4,2.7-0.6,4.2-0.6c2.4,0,4.2,1,4.2,3.8v12.2h4.3V46.4
		C135.6,40.9,132.5,39,127.5,39"/>
	<path fill="#FFFFFF" d="M224.9,39c-5.4,0-9.4,4.1-9.4,10.3s4.1,10,10.2,10c2.5,0,5.1-0.6,6.9-1.8v-0.1l-2-2.7
		c-1.3,0.6-2.8,0.8-4.6,0.8c-3,0-6-1.9-6.3-5.4V50h13.6v-2.2C233.2,42.6,230.6,39,224.9,39 M219.8,47.3c0.6-2.9,2.4-4.7,4.9-4.7
		c2.8,0,4.3,1.7,4.4,4.7H219.8z"/>
	<path fill="#FFFFFF" d="M149.2,39c-5.8,0-10,4.1-10,10.2c0,6,4.2,10.2,10,10.2c5.9,0,10.1-4.1,10.1-10.2
		C159.2,43.1,155,39,149.2,39 M149.2,55.6c-3.3,0-5.6-2.5-5.6-6.4c0-4,2.4-6.5,5.6-6.5c3.3,0,5.7,2.5,5.7,6.5
		C154.8,53.1,152.5,55.6,149.2,55.6"/>
	<polygon fill="#FFFFFF" points="170.1,54.7 164.6,39.4 159.9,39.4 167.5,58.9 172.4,58.9 180,39.4 175.5,39.4 	"/>
	<path fill="#FFFFFF" d="M189.3,39c-2.4,0-4.6,0.6-6.3,1.6v3.8c1.6-0.9,3.4-1.6,5.6-1.6c2.2,0,3.7,1,3.7,3.1v1.6h-2.2
		c-5.6,0-9,1.9-9,5.9c0,4.4,3.7,5.9,8.8,5.9c2.2,0,4.8-0.3,6.7-0.8V45.6C196.6,40.7,193.6,39,189.3,39 M192.4,55.8
		c-0.8,0.1-1.7,0.2-2.4,0.2c-2.6,0-4.5-0.8-4.5-2.8s2-2.9,5-2.9h1.8L192.4,55.8L192.4,55.8z"/>
	<path fill="#FFFFFF" d="M207.1,52.6v-9.3h5.6v-3.7h-5.6v-6.9l-4.3,3.1v3.7h-3v3.7h3v10.3c0,4.5,2.7,6,5.9,6c1.9,0,3.4-0.4,4.7-1.1
		v-3.9c-1.2,0.7-2.3,1.1-3.6,1.1C208.1,55.7,207.1,54.9,207.1,52.6"/>
	<path fill="#FFFFFF" d="M260.4,55.9c-1.5,0.3-3.1,0.4-5.2,0.4c-3.9,0-6.5-1.3-6.5-6.3V32.8l-4.5,3.3v14.8c0,7.3,5.1,9.4,11,9.4
		c3.1,0,7.2-0.5,9.7-1.2V32.8h-4.5V55.9z"/>
	<polygon fill="#FFFFFF" points="269.9,58.9 274.4,58.9 274.4,32.8 272.2,32.8 269.9,32.8 269.9,45 	"/>
	<polygon fill="#FFFFFF" points="290,32.8 285.1,32.8 275.6,45.9 285.1,58.9 290,58.9 280.5,45.9 	"/>
	<g>
		<path fill="#FFFFFF" d="M103.1,26.8h-2.5L97.8,17L95,26.7h-2.5l-4.1-12.8H91l2.8,9.7l2.8-9.7H99l2.8,9.7l2.8-9.7h2.5L103.1,26.8z"
			/>
		<path fill="#FFFFFF" d="M112.1,17.2c2.7,0,4.5,1.9,4.5,4.7c0,0.3,0,0.5,0,0.8h-6.8c0.2,1.5,1.4,2.5,3,2.5c0.8,0,1.7-0.2,2.7-0.8
			l0.7,1.7c-1.4,0.6-2.7,0.9-3.8,0.9c-3,0-5.1-2-5.1-4.9S109.2,17.2,112.1,17.2z M109.7,21.2h4.5c-0.1-1.3-0.9-2.2-2.2-2.2
			C110.8,19,109.9,19.9,109.7,21.2z"/>
		<path fill="#FFFFFF" d="M133.1,26.8h-2.4l-1.8-6.6l-1.8,6.6h-2.4l-3.1-9.3h2.5l1.8,6.6l1.8-6.6h2.3l1.8,6.6l1.8-6.6h2.4
			L133.1,26.8z"/>
		<path fill="#FFFFFF" d="M142,17.2c3,0,5.1,2,5.1,4.9S145,27,142,27s-5-2-5-4.9S139.1,17.2,142,17.2z M142,25.1
			c1.5,0,2.6-1.2,2.6-3s-1.1-3-2.6-3s-2.6,1.2-2.6,3C139.5,23.8,140.5,25.1,142,25.1z"/>
		<path fill="#FFFFFF" d="M149,17.4h1.9l0.3,1.4c0.5-1,1.5-1.6,2.8-1.6c0.3,0,0.7,0,1.1,0.1l-0.2,1.9c-0.3-0.1-0.7-0.1-1.1-0.1
			c-1.4,0-2.4,1.1-2.4,2.7v4.8H149C149,26.6,149,17.4,149,17.4z"/>
		<path fill="#FFFFFF" d="M156.7,13.3h2.3v8.1l3.6-4h2.8l-4,4.4l4.2,5h-2.8l-2.9-3.5L159,24v2.8h-2.3V13.3z"/>
		<path fill="#FFFFFF" d="M181.3,26.8h-2.4l-1.8-6.6l-1.8,6.6h-2.4l-3.1-9.3h2.5l1.8,6.6l1.8-6.6h2.3l1.8,6.6l1.8-6.6h2.4
			L181.3,26.8z"/>
		<path fill="#FFFFFF" d="M187.2,13.3c0.9,0,1.5,0.6,1.5,1.5c0,0.9-0.6,1.5-1.5,1.5c-0.8,0-1.5-0.6-1.5-1.5S186.3,13.3,187.2,13.3z
			 M185.9,17.4h2.4v9.3h-2.4V17.4z"/>
	</g>
	<g>
		<path fill="#FFFFFF" d="M194.2,17.4h2.6v1.9h-2.6v4.5c0,0.8,0.5,1.3,1.3,1.3c0.4,0,0.8-0.1,1.2-0.2l0.3,1.8
			c-0.7,0.2-1.5,0.3-2.1,0.3c-1.9,0-3.2-1.2-3.2-3v-4.7H190v-1.9h1.7v-2.7h2.4v2.7H194.2z"/>
	</g>
	<g>
		<path fill="#FFFFFF" d="M198.8,13.3h2.4v5.3c0.7-0.9,1.8-1.4,3-1.4c2.1,0,3.6,1.5,3.6,3.6v6h-2.3v-5.6c0-1.1-0.8-1.9-1.9-1.9
			c-1.3,0-2.3,1-2.3,2.4v5.2h-2.4V13.3H198.8z"/>
	</g>
</g>
</svg>
